<svg id="icon-contactless-tip" xmlns="http://www.w3.org/2000/svg" width="26" height="26" viewBox="0 0 26 26">
  <path id="icon-contactless-tip-2" data-name="icon-contactless-tip" d="M6.367,3.572a2.547,2.547,0,1,0-5.093,0,2.547,2.547,0,1,0,5.093,0Zm4.608.919-.546-.276a1.269,1.269,0,0,0-1.171.81A3.786,3.786,0,0,1,5.73,7.431H1.91A1.917,1.917,0,0,0,0,9.36v3.216H7.64V9.669a6.336,6.336,0,0,0,3.973-3.743C11.944,5.1,11.853,4.491,10.975,4.491ZM22.193,20.569A2.573,2.573,0,1,0,19.646,18,2.551,2.551,0,0,0,22.193,20.569Zm1.91,1.286h-3.82a3.786,3.786,0,0,1-3.527-2.405,1.256,1.256,0,0,0-1.171-.81h0a1.273,1.273,0,0,0-1.2,1.711,6.366,6.366,0,0,0,3.973,3.743V27H26V23.784A1.9,1.9,0,0,0,24.1,21.855Zm-4.138-8.888s0-.013.013,0a3.864,3.864,0,0,0-2.763,2.791v-.013a1.28,1.28,0,0,1-2.521-.322,1.142,1.142,0,0,1,.025-.18,6.386,6.386,0,0,1,4.775-4.8c.051,0,.1-.013.153-.013a1.289,1.289,0,0,1,.318,2.534Zm.955-6.47a1.274,1.274,0,0,1-1.1,1.273h0a8.955,8.955,0,0,0-7.755,7.846h0a1.273,1.273,0,0,1-2.534-.193v-.116A11.539,11.539,0,0,1,19.62,5.212h.013A1.286,1.286,0,0,1,20.919,6.5Z" transform="translate(0 -1)" fill="#49798d"/>
</svg>
