<svg id="icon-tools-tip" xmlns="http://www.w3.org/2000/svg" width="22.105" height="21" viewBox="0 0 22.105 21">
  <path id="icon-tools-tip-2" data-name="icon-tools-tip" d="M19712.039,16013.213l2.373-2.4,6.691,6.788-2.369,2.4Zm-12.215,4.378,8.27-8.387-1.986-2.014-.787.8-1.576-1.6v3.205l-.791.8-3.955-4.008.8-.8h3.146l-1.572-1.6,3.951-4a3.308,3.308,0,0,1,4.73,0l-2.367,2.4,1.576,1.595-.793.8,1.988,2.014,2.063-2.1a3.931,3.931,0,0,1,3.672-5.273,3.806,3.806,0,0,1,1.785.467l-3.01,3.054,1.664,1.685,3.01-3.054a3.933,3.933,0,0,1-3.449,5.773,3.736,3.736,0,0,1-1.295-.239l-12.7,12.867Z" transform="translate(-19698.998 -15998.999)" fill="#49798d"/>
</svg>
