<svg id="icon-faq-square" xmlns="http://www.w3.org/2000/svg" width="20" height="22" viewBox="0 0 20 22">
  <path id="icon-faq-square-2" data-name="icon-faq-square" d="M20.778,2H5.222A2.181,2.181,0,0,0,3,4.138V19.1A2.188,2.188,0,0,0,5.222,21.24H9.667l2.544,2.448a1.138,1.138,0,0,0,1.567,0l2.556-2.448h4.444A2.188,2.188,0,0,0,23,19.1V4.138A2.188,2.188,0,0,0,20.778,2ZM14.111,19.1H11.889V16.964h2.222Zm2.3-8.284-1,.983A3.5,3.5,0,0,0,14.167,14a.946.946,0,0,1-.944.812h-.344a.933.933,0,0,1-.944-1.047,4.241,4.241,0,0,1,1.267-2.5L14.578,9.92a2.084,2.084,0,0,0,.644-1.507A2.188,2.188,0,0,0,13,6.275a2.231,2.231,0,0,0-2.1,1.443.989.989,0,0,1-.922.684H9.644a.933.933,0,0,1-.911-1.2A4.427,4.427,0,0,1,13,4.138a4.361,4.361,0,0,1,4.444,4.275A3.337,3.337,0,0,1,16.411,10.818Z" transform="translate(-3 -2)" fill="#49798d"/>
</svg>
